<svg xmlns="http://www.w3.org/2000/svg" viewBox="0 0 1024 1024" width="81" height="81">
  <path d="M920.791579 947.858713H103.198441c-12.904795 0-23.404288-10.499493-23.404289-23.404288V290.07345h348.858636v319.745497h158.819805V290.07345h356.723274v634.380975c0 12.904795-10.499493 23.404288-23.404288 23.404288z m-801.0754-39.922027h784.557661V329.995478H627.39462v319.745497H388.73076V329.995478H119.716179v577.941208z" fill="currentColor"/>
  <path d="M607.433606 310.034464v319.745497H408.691774V310.034464l46.239688-212.514932h107.240546l45.261598 212.514932z" fill="currentColor"/>
  <path d="M627.39462 649.740975H388.73076V307.888655L438.842885 77.558519h139.477583l49.064171 230.370058v341.812398z m-198.741832-39.922028h158.819805V312.140351l-41.459026-194.659805h-75.003509l-42.367251 194.699727v297.638674z" fill="currentColor"/>
  <path d="M408.691774 329.995478H99.755166a19.961014 19.961014 0 0 1-18.443977-12.325926c-3.093957-7.455439-1.37731-16.048655 4.32156-21.757505L298.14768 83.397115c3.74269-3.74269 8.822768-5.848577 14.112437-5.848577h142.661364c6.038207 0 11.757037 2.734659 15.53965 7.435478 3.792593 4.700819 5.249747 10.868772 3.962261 16.767251l-46.239688 212.514932c-1.996101 9.172086-10.120234 15.719298-19.501911 15.719298z m-260.740741-39.922028h244.662144l37.556648-172.592904H320.543938L147.951033 290.07345zM924.234854 329.995478H607.433606c-9.421598 0-17.555712-6.587135-19.521871-15.799143l-45.261599-212.514931a19.973988 19.973988 0 0 1 19.531852-24.122885h155.456375c5.389474 0 10.549396 2.185731 14.312046 6.048187L938.556881 296.121637c5.589084 5.748772 7.195945 14.292086 4.072047 21.687642a19.966004 19.966004 0 0 1-18.384094 12.196179z m-300.642807-39.922028H876.987135L709.194854 117.480546h-122.361014l36.758207 172.592904z" fill="currentColor"/>
</svg>
