<svg xmlns="http://www.w3.org/2000/svg" viewBox="0 0 1024 1024" width="81" height="81">
  <path d="M842.205068 902.457388H197.354542c-11.02846 0-19.961014-8.932554-19.961014-19.961014V346.613021c0-11.02846 8.932554-19.961014 19.961014-19.961013h34.452709c11.02846 0 19.961014 8.932554 19.961014 19.961013s-8.932554 19.961014-19.961014 19.961014h-14.491695v495.971306h604.928499V366.574035h-19.052788c-11.02846 0-19.961014-8.932554-19.961014-19.961014s8.932554-19.961014 19.961014-19.961013h39.013801c11.02846 0 19.961014 8.932554 19.961014 19.961013v535.893334c0 11.02846-8.932554 19.961014-19.961014 19.961013z" fill="currentColor"/>
  <path d="M931.151345 902.457388H92.848655c-11.02846 0-19.961014-8.932554-19.961014-19.961014s8.932554-19.961014 19.961014-19.961013h838.30269c11.02846 0 19.961014 8.932554 19.961014 19.961013s-8.932554 19.961014-19.961014 19.961014z" fill="currentColor"/>
  <path d="M636.526784 902.457388H396.375828c-11.02846 0-19.961014-8.932554-19.961013-19.961014V620.617856c0-13.433762 10.928655-24.362417 24.362417-24.362417h231.348148c13.433762 0 24.362417 10.928655 24.362417 24.362417v261.878518c0 11.02846-8.932554 19.961014-19.961013 19.961014z m-220.189942-39.922027h200.228928v-226.357895H416.336842v226.357895zM782.202261 497.318674H252.916023c-15.95883 0-28.933489-12.984639-28.933489-28.933489V172.582924c0-15.95883 12.984639-28.933489 28.933489-28.933489h529.286238c15.95883 0 28.933489 12.984639 28.933489 28.933489v295.812242c0 15.95883-12.984639 28.933489-28.933489 28.933489z m-520.293801-37.925925h511.311345V181.56538H261.90846v277.827369z" fill="currentColor"/>
  <path d="M450.041014 301.191735c-9.711033 0-15.210292 8.533333-15.210293 21.517973s5.499259 21.507992 15.210293 21.507992 15.200312-8.403587 15.200312-21.507992-5.489279-21.517973-15.200312-21.517973z" fill="currentColor"/>
  <path d="M767.490994 177.253801H271.250214c-5.159922 0-9.351735 4.052086-9.351734 9.042339v268.355868c0 5.000234 4.181832 9.042339 9.351734 9.042339h496.24078c5.159922 0 9.351735-4.052086 9.351735-9.042339V186.306121c0-5.000234-4.181832-9.042339-9.351735-9.042339zM373.809903 359.048733c-6.257778 0-12.266043-2.714698-17.765303-7.535283l0.638753 11.377778v21.018947h-18.783314v-95.812865h15.330058l1.407252 7.166004h0.379259c6.008265-4.950331 13.423782-8.902612 21.078831-8.902612 17.635556 0 28.105107 13.97271 28.105107 35.231189 0 23.733645-14.691306 37.456842-30.400624 37.456842z m76.231111 0c-17.885068 0-34.372865-13.353918-34.372866-36.339025s16.487797-36.349006 34.372866-36.349006 34.372865 13.353918 34.372865 36.349006-16.487797 36.339025-34.372865 36.339025z m68.835555-1.726628h-18.783314v-69.224795h18.783314v69.224795z m-9.331774-80.35306c-6.517271 0-10.988538-3.952281-10.988538-10.010449s4.471267-9.890682 10.988538-9.890682 10.858791 3.952281 10.858792 9.890682-4.471267 10.010448-10.858792 10.010449z m91.840624 80.35306h-18.783314v-40.920078c0-10.749006-3.064016-14.461754-10.090292-14.461754-5.878519 0-9.581287 2.714698-14.821053 7.784795v47.597037h-18.783314v-69.224795h15.330059l1.407251 9.142144h0.37926c6.267758-5.928421 13.543548-10.878752 23.25458-10.878752 15.449825 0 22.096842 10.389708 22.096843 27.815672v43.145731z m45.580975 1.726628c-16.996803 0-23.514074-10.509474-23.514074-25.959298v-30.660117h-10.090293v-13.473684l11.118285-0.868305 2.17575-18.673528h15.589552v18.673528h17.635556v14.332008H642.245614v30.660117c0 7.914542 3.323509 11.61731 9.711033 11.61731 2.295517 0 5.110019-0.738558 7.026277-1.487095l3.073996 13.234152c-3.832515 1.237583-8.812788 2.594932-15.070565 2.594931z m46.349473 0c-9.581287 0-20.060819-4.072047-27.216842-9.770916l8.563275-11.367798c6.387524 4.820585 12.515556 7.535283 19.162573 7.535283 7.156023 0 10.349786-2.964211 10.349786-7.29575 0-5.189864-7.405536-7.535283-14.940819-10.389708-9.072281-3.333489-19.162573-8.653099-19.162573-20.270409 0-12.365848 10.349786-21.138713 26.697856-21.138714 10.349786 0 18.394074 4.201793 24.272592 8.533334L712.608187 305.892554c-5.110019-3.583002-10.090292-5.938402-15.340039-5.938402-6.517271 0-9.581287 2.724678-9.581286 6.676959 0 5.070097 6.647018 6.926472 14.1823 9.64117 9.45154 3.463236 19.931072 8.034308 19.931072 20.8892 0 12.116335-9.830799 21.877271-28.484367 21.877271z" fill="currentColor"/>
  <path d="M370.735906 301.321481c-4.850526 0-9.192047 2.345419-14.052553 7.166004v30.420585c4.471267 3.832515 9.072281 5.189864 12.904795 5.189864 8.693021 0 15.330058-7.166004 15.330059-22.24655 0-13.234152-4.34152-20.519922-14.182301-20.519922z" fill="currentColor"/>
</svg>
