<svg xmlns="http://www.w3.org/2000/svg" viewBox="0 0 1024 1024" width="81" height="81">
  <path d="M508.965926 383.361248l-7.385575-4.141911c-1.477115-0.828382-36.508694-20.659649-71.769825-56.509629-47.786667-48.595088-73.107212-103.687485-73.236959-159.30885-0.089825-36.897934 16.078596-53.735049 29.662067-61.360156 21.288421-11.956647 51.858713-10.329825 90.882495 4.840546 15.75922 6.128031 29.672047 13.204211 38.504795 18.014814 9.122183-4.491228 23.474152-11.038441 39.462924-16.397972 40.311267-13.523587 70.442417-12.515556 89.555088 2.994152 11.397739 9.25193 17.964912 22.745575 19.511891 40.101676 1.427212 16.008733-1.407251 35.181287-8.6531 58.605536-43.594854 140.854893-134.567173 169.578791-138.419649 170.72655l-8.104172 2.425263z m-89.365458-249.412866c-5.50924 0-10.230019 0.888265-13.813022 2.904328-6.187914 3.483197-9.311813 12.385809-9.281871 26.448343 0.109786 45.331462 20.649669 89.295595 61.060741 130.674775 21.887251 22.416218 44.093879 38.055673 55.581442 45.491151 7.575205-3.672827 20.040858-10.848811 34.103392-23.464172 21.298402-19.122651 50.750877-55.042495 70.123041-117.610292 10.509474-33.953684 7.984405-51.140117 2.125848-55.9108-5.638986-4.581053-22.04694-6.018246-51.2 3.682807-23.204678 7.724912-43.245536 18.763353-43.455127 18.873139l-10.180117 5.638986-9.930604-6.068148c-23.264561-14.202261-61.420039-30.670097-85.123743-30.670097z" fill="currentColor"/>
  <path d="M858.223782 929.893801H165.995789v-19.961013c0-123.85809 15.439844-230.120546 45.88039-315.813178 25.300585-71.210916 61.110643-128.908226 106.452086-171.475088 88.676803-83.267368 183.561481-81.271267 193.551969-80.802183 78.865965 0.139727 146.394074 31.199064 200.727953 92.34963 42.327329 47.636959 76.460663 113.538246 101.451852 195.877427 41.93809 138.170136 43.894269 273.934971 43.954152 279.64382l0.219571 20.180585z m-652.166238-39.922027h611.276101c-2.17575-42.666667-10.489513-146.543782-41.698557-249.023626-52.3777-171.984094-141.294035-259.183782-264.27384-259.183782l-1.187681-0.039922c-0.708616-0.039922-22.266511-0.98807-53.066355 7.156024-41.478986 10.968577-79.255205 32.386745-112.290682 63.665653-89.295595 84.524912-135.934503 231.637583-138.749006 437.425653z" fill="currentColor"/>
  <path d="M523.4177 361.523899s-31.757973-88.676803-175.317583-88.676803v194.919298s132.012164 16.677427 175.317583-106.242495z" fill="currentColor"/>
  <path d="M497.677973 361.523899s31.757973-88.676803 175.317583-88.676803v194.919298s-132.012164 16.677427-175.317583-106.242495z" fill="currentColor"/>
  <path d="M393.471501 929.893801c-11.02846 0-19.961014-8.932554-19.961014-19.961013v-209.490839c0-11.02846 8.932554-19.961014 19.961014-19.961013s19.961014 8.932554 19.961014 19.961013v209.490839c0 11.02846-8.932554 19.961014-19.961014 19.961013zM639.191579 929.893801c-11.02846 0-19.961014-8.932554-19.961014-19.961013V776.054269c0-11.02846 8.932554-19.961014 19.961014-19.961014s19.961014 8.932554 19.961014 19.961014v133.878519c0 11.02846-8.932554 19.961014-19.961014 19.961013z" fill="currentColor"/>
</svg>
